<?xml version="1.0" standalone="no"?>
<!DOCTYPE svg PUBLIC "-//W3C//DTD SVG 20010904//EN"
 "http://www.w3.org/TR/2001/REC-SVG-20010904/DTD/svg10.dtd">
<svg version="1.0" xmlns="http://www.w3.org/2000/svg"
 width="285.000000pt" height="285.000000pt" viewBox="0 0 285.000000 285.000000"
 preserveAspectRatio="xMidYMid meet">
<metadata>
Created by potrace 1.11, written by Peter Selinger 2001-2013
</metadata>
<g transform="translate(0.000000,285.000000) scale(0.100000,-0.100000)"
fill="#000000" stroke="none">
<path d="M1195 2752 c-2 -2 -9 -5 -17 -6 -75 -15 -99 -21 -135 -37 -22 -10
-44 -15 -47 -12 -3 4 -6 2 -6 -4 0 -6 -12 -14 -26 -17 -24 -6 -25 -10 -20 -54
3 -26 8 -58 11 -72 21 -90 27 -365 11 -405 -5 -11 -10 -31 -12 -45 -10 -76
-11 -76 -64 -3 -92 127 -248 293 -275 293 -23 0 -65 -125 -85 -252 -4 -32 -11
-62 -15 -68 -3 -5 0 -10 7 -10 8 0 9 -3 3 -8 -12 -8 -12 -228 0 -309 l7 -53
-41 15 c-23 8 -41 12 -41 9 0 -2 -12 2 -27 9 -16 8 -41 17 -57 21 l-28 7 6
-48 c8 -57 51 -214 73 -263 30 -70 89 -178 109 -201 8 -8 14 -21 14 -27 0 -7
4 -12 9 -12 5 0 12 -7 15 -16 4 -10 1 -15 -12 -13 -9 1 -34 -1 -54 -5 -39 -8
-46 -27 -22 -58 6 -7 22 -33 35 -58 13 -25 26 -47 29 -50 3 -3 25 -30 50 -60
52 -65 108 -121 169 -173 43 -36 75 -50 53 -25 -6 7 -10 15 -11 18 0 3 -3 13
-7 23 -9 24 1 134 14 150 6 7 10 15 9 18 -2 8 44 63 61 73 10 6 9 -2 -3 -31
-22 -51 -26 -140 -10 -180 8 -18 12 -33 9 -33 -7 0 32 -34 54 -48 28 -15 107
-16 135 0 38 21 48 19 32 -6 -30 -45 -105 -93 -126 -81 -5 4 -9 2 -9 -3 0 -5
19 -17 43 -27 23 -10 57 -24 74 -32 33 -14 151 -46 214 -58 18 -3 93 -8 165
-11 l131 -4 56 37 c32 21 57 42 58 48 0 5 14 21 30 34 l30 23 -7 -28 c-4 -16
-11 -40 -16 -53 -5 -13 -7 -26 -4 -28 9 -9 121 29 191 63 100 50 151 98 159
151 3 23 10 52 15 65 5 13 9 25 9 28 1 3 8 22 16 42 22 53 20 57 -12 23 -37
-39 -92 -85 -101 -85 -5 0 -16 -9 -26 -20 -10 -11 -24 -20 -32 -20 -7 0 -13
-4 -13 -8 0 -5 -24 -21 -52 -35 l-53 -28 -6 33 c-3 18 -11 43 -18 56 -12 22
-14 22 -34 8 -12 -9 -29 -19 -37 -23 -8 -4 -17 -9 -20 -12 -9 -11 -85 -57
-122 -74 -22 -11 -48 -15 -65 -12 -15 3 -37 7 -48 9 -63 11 -234 90 -250 117
-4 5 3 18 14 28 25 22 27 31 6 31 -8 0 -15 4 -15 9 0 5 -10 12 -22 15 -13 3
-43 24 -68 45 -44 39 -44 40 -19 46 14 3 34 7 44 9 17 2 24 17 27 54 1 6 5 12
10 12 5 0 7 4 4 9 -7 10 48 71 85 95 39 25 60 28 224 32 161 4 183 6 203 18 6
4 12 3 12 -2 0 -4 -37 -43 -81 -85 l-82 -77 -84 0 c-50 0 -97 -6 -118 -14 -19
-8 -35 -13 -35 -10 0 3 -10 -4 -22 -15 -11 -11 -25 -18 -30 -14 -6 3 -8 -3 -6
-13 3 -15 102 -85 117 -82 3 1 15 -3 25 -7 26 -11 96 9 151 43 l46 29 50 -25
c51 -25 72 -24 49 2 -6 9 -15 31 -20 50 -7 32 -4 37 39 78 25 24 61 61 79 81
31 37 33 37 72 27 49 -13 140 -16 198 -6 l43 8 -26 -26 c-15 -15 -31 -23 -37
-20 -6 4 -8 3 -5 -3 4 -6 -16 -29 -43 -52 -28 -23 -50 -48 -50 -55 0 -7 -13
-28 -29 -47 -17 -18 -28 -35 -26 -37 4 -4 64 24 88 40 12 9 20 10 25 2 12 -19
52 -35 71 -29 10 3 24 23 31 45 12 36 11 42 -3 53 -15 11 -13 16 23 57 37 42
46 42 41 3 -4 -27 25 -11 44 24 11 20 25 41 30 47 41 44 136 275 150 363 2 11
6 29 9 40 12 40 26 263 16 263 -3 0 -5 17 -5 38 1 20 -1 42 -4 47 -8 14 -11
34 -14 81 -1 23 -5 40 -9 38 -3 -2 -11 19 -18 46 -7 28 -14 50 -16 50 -5 0
-54 -50 -54 -56 0 -8 -30 -37 -34 -33 -2 2 -9 33 -15 69 -7 36 -22 92 -32 125
-23 70 -89 205 -101 205 -4 0 -8 4 -8 10 0 24 -152 181 -221 228 l-46 31 -12
-57 c-22 -101 -16 -96 -69 -65 -26 14 -55 33 -64 41 -10 8 -18 12 -18 8 0 -4
-17 2 -37 13 -47 25 -139 52 -233 67 -39 7 -229 11 -235 6z m826 -744 c45 -42
85 -111 100 -174 10 -38 8 -48 -12 -89 -27 -54 -39 -62 -94 -60 -48 2 -72 12
-105 42 -14 13 -28 23 -32 23 -3 0 -13 6 -20 13 -7 6 -31 21 -53 31 -44 21
-48 23 -70 25 -12 1 -7 16 21 69 20 37 38 68 39 70 1 1 24 -7 51 -19 27 -12
52 -22 55 -21 3 0 18 -10 34 -24 16 -13 32 -21 36 -17 10 10 17 55 18 111 1
23 3 42 5 42 1 0 14 -10 27 -22z m-277 -325 c6 -4 13 -8 16 -8 20 -3 50 -18
50 -26 0 -5 5 -9 11 -9 11 0 95 -55 117 -77 7 -7 20 -17 29 -22 19 -10 26
-121 8 -133 -6 -5 -6 -8 2 -8 7 0 10 -7 7 -15 -4 -8 -12 -15 -18 -15 -7 0 -37
-15 -68 -33 -51 -32 -57 -33 -94 -22 -57 17 -159 70 -212 110 -25 19 -49 35
-53 35 -8 0 92 202 113 227 11 14 67 11 92 -4z m464 -60 c10 -30 10 -179 0
-213 -3 -8 -8 -32 -13 -52 -4 -22 -13 -38 -21 -38 -8 0 -14 5 -14 10 0 6 -6
10 -12 10 -7 1 -26 11 -41 24 -25 20 -29 31 -31 82 -2 66 8 92 59 149 19 22
38 48 41 59 7 22 18 12 32 -31z"/>
<path d="M885 553 c-10 -27 -22 -52 -26 -57 -5 -6 -9 -16 -9 -23 0 -13 -45
-96 -77 -142 -17 -23 -17 -24 6 -16 13 4 59 31 103 60 76 52 78 53 73 27 -2
-15 -9 -56 -14 -92 -6 -36 -13 -82 -17 -104 -4 -30 -3 -37 8 -30 30 17 134 90
152 106 11 10 25 18 32 18 7 0 14 4 16 8 2 4 17 18 35 30 l32 23 14 -33 c7
-18 28 -79 47 -136 19 -56 38 -102 42 -102 5 0 14 11 20 25 6 14 15 25 20 25
4 0 8 5 8 11 0 6 24 49 52 96 l52 85 61 -65 c33 -36 84 -91 113 -122 29 -32
54 -56 56 -54 2 2 7 51 11 108 11 154 12 158 40 114 27 -42 130 -135 139 -126
3 3 -2 16 -10 28 -8 12 -14 27 -13 31 1 5 -2 20 -8 34 -6 14 -16 57 -22 95
-21 121 -19 116 -46 111 -14 -3 -28 -7 -32 -9 -5 -3 -26 -8 -48 -12 -124 -21
-303 -21 -410 -1 -16 4 -46 9 -65 12 -19 3 -39 9 -45 12 -5 4 -17 7 -25 9 -33
4 -90 27 -90 35 0 5 -4 7 -8 4 -5 -3 -40 10 -78 29 -38 19 -70 35 -70 35 -1 0
-9 -21 -19 -47z"/>
</g>
</svg>
